<?xml version="1.0" encoding="UTF-8" standalone="no"?>
<!DOCTYPE svg PUBLIC "-//W3C//DTD SVG 1.1//EN" "http://www.w3.org/Graphics/SVG/1.1/DTD/svg11.dtd">
<svg width="100%" height="100%" viewBox="0 0 347 646" version="1.1" xmlns="http://www.w3.org/2000/svg" xmlns:xlink="http://www.w3.org/1999/xlink" xml:space="preserve" xmlns:serif="http://www.serif.com/" style="fill-rule:evenodd;clip-rule:evenodd;stroke-linejoin:round;stroke-miterlimit:2;">
    <g transform="matrix(1,0,0,1,0,0.000656249)">
        <g transform="matrix(1.33333,0,0,1.33333,0,0)">
            <g transform="matrix(0.92188,0,0,1.20522,458.325,-125.796)">
                <g>
                    <path d="M-229.445,376.352C-229.445,364.288 -231.041,353.466 -234.235,343.885C-237.428,334.305 -241.686,325.966 -247.009,318.87C-252.331,311.773 -258.363,305.652 -265.105,300.507C-271.847,295.362 -278.943,291.371 -286.395,288.532C-280.008,286.048 -273.798,282.411 -267.766,277.621C-261.734,272.831 -256.323,266.976 -251.533,260.057C-246.742,253.138 -242.839,245.331 -239.823,236.638C-236.807,227.945 -235.299,218.453 -235.299,208.163C-235.299,175.874 -245.501,150.503 -265.903,132.052C-286.306,113.601 -314.249,104.375 -349.732,104.375L-497.163,104.375L-497.164,505.755L-340.012,483.775C-322.658,482.613 -301.456,477.187 -287.44,472.574C-273.424,467.962 -264.172,460.169 -254.06,451.121C-243.947,442.073 -241.324,436.634 -235.647,423.328C-229.969,410.022 -229.445,393.739 -229.445,376.352ZM-292.782,210.292C-292.782,228.033 -298.459,241.517 -309.813,250.743C-321.168,259.968 -335.297,259.696 -353.748,259.696L-414.489,260.286L-413.7,160.945L-354.982,160.612C-336.53,160.612 -321.168,160.616 -309.813,169.841C-298.459,179.067 -292.782,192.551 -292.782,210.292ZM-286.927,373.691C-286.927,390.723 -292.249,404.65 -302.894,415.472C-313.539,426.294 -414.85,427.581 -414.85,427.581L-414.629,321.973L-347.454,321.695C-327.228,321.695 -313.539,321.531 -302.894,332.176C-292.249,342.821 -286.927,356.659 -286.927,373.691Z" style="fill:rgb(235,41,36);fill-rule:nonzero;"/>
                </g>
            </g>
        </g>
        <g transform="matrix(1.33333,0,0,1.33333,0,0)">
            <g transform="matrix(0.92188,0,0,1.20522,471.159,-125.171)">
                <g>
                    <path d="M-229.445,376.352C-229.445,364.288 -231.041,353.466 -234.235,343.885C-237.428,334.305 -241.686,325.966 -247.009,318.87C-252.331,311.773 -258.363,305.652 -265.105,300.507C-271.847,295.362 -278.943,291.371 -286.395,288.532C-280.008,286.048 -273.798,282.411 -267.766,277.621C-261.734,272.831 -256.323,266.976 -251.533,260.057C-246.742,253.138 -242.839,245.331 -239.823,236.638C-236.807,227.945 -235.299,218.453 -235.299,208.163C-235.299,175.874 -245.501,150.503 -265.903,132.052C-286.306,113.601 -314.249,104.375 -349.732,104.375L-285.04,186.847L-300.317,288.013L-285.564,391.167L-348.718,482.795C-331.364,481.633 -301.456,477.187 -287.44,472.574C-273.424,467.962 -264.172,460.169 -254.06,451.121C-243.947,442.073 -241.324,436.634 -235.647,423.328C-229.969,410.022 -229.445,393.739 -229.445,376.352Z" style="fill:rgb(235,41,36);fill-rule:nonzero;"/>
                </g>
            </g>
        </g>
    </g>
</svg>
