<?xml version="1.0" encoding="UTF-8" standalone="no"?>
<!DOCTYPE svg PUBLIC "-//W3C//DTD SVG 1.1//EN" "http://www.w3.org/Graphics/SVG/1.1/DTD/svg11.dtd">
<svg width="100%" height="100%" viewBox="0 0 293 327" version="1.1" xmlns="http://www.w3.org/2000/svg" xmlns:xlink="http://www.w3.org/1999/xlink" xml:space="preserve" xmlns:serif="http://www.serif.com/" style="fill-rule:evenodd;clip-rule:evenodd;stroke-linejoin:round;stroke-miterlimit:2;">
    <g transform="matrix(5.55556,0,0,5.55556,-128.823,-114.665)">
        <g id="Layer_8_copy_4_3_">
            <path d="M28.213,27.267L28.213,35.561C28.213,36.132 28.518,36.661 29.013,36.946L49.225,48.615C50.291,49.231 50.291,50.77 49.225,51.386L29.013,63.055C28.518,63.341 28.213,63.869 28.213,64.44L28.213,72.734C28.213,73.965 29.546,74.735 30.612,74.119L69.987,51.386C71.053,50.77 71.053,49.231 69.987,48.615L30.612,25.881C29.546,25.266 28.213,26.035 28.213,27.267Z" style="fill:white;fill-rule:nonzero;stroke:white;stroke-width:1px;"/>
            <path d="M69.987,48.615L30.612,25.881C30.419,25.769 30.217,25.717 30.015,25.691L67.987,47.614C69.053,48.23 69.053,49.769 67.987,50.385L28.612,73.119C28.512,73.177 28.407,73.211 28.304,73.245C28.612,74.159 29.705,74.643 30.612,74.119L69.987,51.386C71.054,50.77 71.054,49.23 69.987,48.615Z" style="fill:white;fill-rule:nonzero;stroke:white;stroke-width:1px;"/>
            <path d="M28.213,27.267L28.213,35.561C28.213,36.132 28.518,36.661 29.013,36.946L49.225,48.615C50.291,49.231 50.291,50.77 49.225,51.386L29.013,63.055C28.518,63.341 28.213,63.869 28.213,64.44L28.213,72.734C28.213,73.965 29.546,74.735 30.612,74.119L69.987,51.386C71.053,50.77 71.053,49.231 69.987,48.615L30.612,25.881C29.546,25.266 28.213,26.035 28.213,27.267Z" style="fill:white;fill-rule:nonzero;stroke:white;stroke-width:1px;stroke-linejoin:miter;stroke-miterlimit:10;"/>
        </g>
    </g>
</svg>
