<?xml version="1.0" encoding="UTF-8" standalone="no"?>
<!DOCTYPE svg PUBLIC "-//W3C//DTD SVG 1.1//EN" "http://www.w3.org/Graphics/SVG/1.1/DTD/svg11.dtd">
<svg width="100%" height="100%" viewBox="0 0 2400 645" version="1.1" xmlns="http://www.w3.org/2000/svg" xmlns:xlink="http://www.w3.org/1999/xlink" xml:space="preserve" xmlns:serif="http://www.serif.com/" style="fill-rule:evenodd;clip-rule:evenodd;stroke-linejoin:round;stroke-miterlimit:2;">
    <g transform="matrix(1.33333,0,0,1.33333,0,0)">
        <g transform="matrix(4.16667,0,0,4.16667,0,0)">
            <g transform="matrix(1,0,0,1,-3.12,0)">
                <path d="M127.163,0.068L76.782,0.068C76.714,35.721 76.656,70.851 76.588,106.503C93.441,104.97 110.329,104.749 127.213,103.776C127.222,98.564 127.206,90.561 127.215,85.349C116.236,86.024 105.733,86.727 94.792,87.462C94.811,77.877 94.83,69.95 94.849,60.364C102.845,60.227 111.29,60.348 119.458,60.208C119.467,54.969 119.477,47.448 119.487,42.209C111.393,42.353 102.845,42.369 94.88,42.521C94.899,32.935 94.918,27.677 94.937,18.091C99.947,18.03 104.858,18.023 109.759,18.023C110.62,18.023 111.48,18.023 112.341,18.024L114.91,18.024C118.998,18.024 123.103,18.019 127.277,17.983C127.287,12.77 127.154,5.28 127.163,0.068Z" style="fill:rgb(236,39,36);fill-rule:nonzero;"/>
            </g>
        </g>
        <g transform="matrix(4.16667,0,0,4.16667,0,0)">
            <path d="M257.462,0.068L206.874,0.068C206.869,33.627 206.864,67.185 206.859,100.742C208.814,100.734 210.792,100.731 212.778,100.731C216.823,100.731 220.899,100.746 224.883,100.777C224.878,86.536 224.874,73.539 224.87,59.297C225.863,59.301 226.866,59.303 227.876,59.303C230.228,59.303 232.618,59.293 235.018,59.283C237.418,59.274 239.828,59.264 242.217,59.264C244.679,59.264 247.118,59.274 249.503,59.307C249.499,54.201 249.494,46.607 249.489,41.501C247.237,41.479 244.936,41.471 242.612,41.471C240.122,41.471 237.607,41.48 235.102,41.488C232.6,41.497 230.107,41.506 227.658,41.506C226.721,41.506 225.789,41.505 224.865,41.502C224.862,32.347 224.86,27.18 224.857,18.024C226.835,18.026 228.808,18.027 230.774,18.027C232.77,18.027 234.76,18.026 236.749,18.025C238.755,18.025 240.76,18.024 242.766,18.024C247.653,18.024 252.544,18.028 257.478,18.051C257.472,12.934 257.467,5.186 257.462,0.068Z" style="fill:rgb(236,39,36);fill-rule:nonzero;"/>
        </g>
        <g transform="matrix(4.16667,0,0,4.16667,0,0)">
            <path d="M269.27,0.15C269.314,34.031 269.151,67.913 269.195,101.796C285.369,102.398 302.365,103.051 318.519,104.168C318.509,98.956 318.499,91.461 318.489,86.249C308.265,85.648 297.621,84.927 287.389,84.501C287.343,55.484 287.503,29.166 287.457,0.151C281.532,0.15 275.194,0.15 269.27,0.15Z" style="fill:rgb(236,39,36);fill-rule:nonzero;"/>
        </g>
        <g transform="matrix(4.16667,0,0,4.16667,0,0)">
            <path d="M333.444,0.152C333.514,35.191 333.582,70.231 333.651,105.27C339.577,105.728 345.708,106.219 351.629,106.746C351.65,71.239 351.699,35.685 351.631,0.153C345.707,0.152 339.368,0.152 333.444,0.152Z" style="fill:rgb(236,39,36);fill-rule:nonzero;"/>
        </g>
        <g transform="matrix(4.16667,0,0,4.16667,0,0)">
            <path d="M367.222,0.154C374.495,17.871 381.148,35.639 388.534,54.453C380.858,72.525 373.045,90.479 365.377,107.814C371.729,108.441 378.3,109.358 384.646,110.065C389.199,98.9 393.341,90.306 397.898,78.839C402.448,91.054 406.584,100.49 411.122,113.098C417.458,113.92 425.672,115.099 432,116C424.329,95.494 415.939,74.143 408.226,54.763C415.907,36.563 423.745,19.189 431.724,0.16C425.173,0.16 418.415,0.159 411.864,0.158C406.94,11.919 403.553,19.477 398.833,30.672C394.436,19.024 391.486,11.485 387.082,0.156C380.531,0.155 373.772,0.155 367.222,0.154Z" style="fill:rgb(236,39,36);fill-rule:nonzero;"/>
        </g>
        <g transform="matrix(4.16667,0,0,4.16667,0,0)">
            <g transform="matrix(0.221251,0,0,0.289253,109.998,-30.1909)">
                <path d="M-229.445,376.352C-229.445,364.288 -231.041,353.466 -234.235,343.885C-237.428,334.305 -241.686,325.966 -247.009,318.87C-252.331,311.773 -258.363,305.652 -265.105,300.507C-271.847,295.362 -278.943,291.371 -286.395,288.532C-280.008,286.048 -273.798,282.411 -267.766,277.621C-261.734,272.831 -256.323,266.976 -251.533,260.057C-246.742,253.138 -242.839,245.331 -239.823,236.638C-236.807,227.945 -235.299,218.453 -235.299,208.163C-235.299,175.874 -245.501,150.503 -265.903,132.052C-286.306,113.601 -314.249,104.375 -349.732,104.375L-497.163,104.375L-497.163,495.604L-340.012,483.775C-322.658,482.613 -301.456,477.187 -287.44,472.574C-273.424,467.962 -264.172,460.169 -254.06,451.121C-243.947,442.073 -241.324,436.634 -235.647,423.328C-229.969,410.022 -229.445,393.739 -229.445,376.352ZM-292.782,210.292C-292.782,228.033 -298.459,241.517 -309.813,250.743C-321.168,259.968 -335.297,259.696 -353.748,259.696L-414.489,260.286L-413.7,160.945L-354.982,160.612C-336.53,160.612 -321.168,160.616 -309.813,169.841C-298.459,179.067 -292.782,192.551 -292.782,210.292ZM-286.927,373.691C-286.927,390.723 -292.249,404.65 -302.894,415.472C-313.539,426.294 -414.85,427.581 -414.85,427.581L-414.629,321.973L-347.454,321.695C-327.228,321.695 -313.539,321.531 -302.894,332.176C-292.249,342.821 -286.927,356.659 -286.927,373.691Z" style="fill:rgb(235,41,36);fill-rule:nonzero;"/>
            </g>
        </g>
        <g transform="matrix(4.16667,0,0,4.16667,0,0)">
            <g transform="matrix(0.221251,0,0,0.289253,113.078,-30.0409)">
                <path d="M-229.445,376.352C-229.445,364.288 -231.041,353.466 -234.235,343.885C-237.428,334.305 -241.686,325.966 -247.009,318.87C-252.331,311.773 -258.363,305.652 -265.105,300.507C-271.847,295.362 -278.943,291.371 -286.395,288.532C-280.008,286.048 -273.798,282.411 -267.766,277.621C-261.734,272.831 -256.323,266.976 -251.533,260.057C-246.742,253.138 -242.839,245.331 -239.823,236.638C-236.807,227.945 -235.299,218.453 -235.299,208.163C-235.299,175.874 -245.501,150.503 -265.903,132.052C-286.306,113.601 -314.249,104.375 -349.732,104.375L-285.04,186.847L-300.317,288.013L-285.564,391.167L-348.718,482.795C-331.364,481.633 -301.456,477.187 -287.44,472.574C-273.424,467.962 -264.172,460.169 -254.06,451.121C-243.947,442.073 -241.324,436.634 -235.647,423.328C-229.969,410.022 -229.445,393.739 -229.445,376.352Z" style="fill:rgb(235,41,36);fill-rule:nonzero;"/>
            </g>
        </g>
        <g transform="matrix(4.16667,0,0,4.16667,0,0)">
            <g transform="matrix(1,0,0,0.878997,135.312,0.0901818)">
                <path d="M59.233,0.068L41.046,0.068C41.011,24.798 40.976,40.816 40.941,65.545C33.127,41.412 25.304,25.436 17.462,0.068L0,0.068C0,38.712 0.072,78.919 0.072,117.562C5.97,117.323 12.165,117.091 18.066,116.89C18.083,92.66 18.142,74.461 18.158,50.23C26.279,74.08 35.023,93.577 43.12,116.242C49.469,116.13 52.632,116.083 59.01,116.002C59.073,79.842 59.17,36.23 59.233,0.068Z" style="fill:rgb(236,39,36);fill-rule:nonzero;"/>
            </g>
        </g>
    </g>
</svg>
